<svg xmlns="http://www.w3.org/2000/svg" width="900" height="640" viewBox="0 0 900 640" role="img" aria-label="RoadFlow 880">

  <defs>
    <linearGradient id="bg" x1="0" y1="0" x2="1" y2="1">
      <stop offset="0" stop-color="#dbeafe"/>
      <stop offset="1" stop-color="#f8fafc"/>
    </linearGradient>
    <filter id="shadow" x="-20%" y="-20%" width="140%" height="140%">
      <feDropShadow dx="0" dy="22" stdDeviation="18" flood-color="#111418" flood-opacity="0.18"/>
    </filter>
  </defs>
  <rect width="900" height="640" fill="url(#bg)"/>
  <path d="M0 512 C170 470 273 596 446 522 C604 456 715 402 900 452 L900 640 L0 640 Z" fill="#ffffff" opacity="0.65"/>
  <circle cx="748" cy="132" r="94" fill="#02b8df" opacity="0.16"/>
  <circle cx="138" cy="142" r="62" fill="#ffffff" opacity="0.20"/>


  <g filter="url(#shadow)" transform="translate(88 160)">
    <path d="M102 256 C150 178 242 126 353 118 C454 111 532 145 595 199 C639 236 686 257 735 266 C742 323 698 361 625 363 L159 363 C90 360 59 319 102 256 Z" fill="#1f2937"/>
    <path d="M151 280 C207 222 288 193 393 194 C491 195 553 228 617 278 C509 306 316 318 151 280 Z" fill="#02b8df" opacity="0.9"/>
    <path d="M90 329 C207 354 519 363 734 320 C760 343 743 388 680 399 C533 425 263 424 98 396 C43 386 40 341 90 329 Z" fill="#f8fafc"/>
    <path d="M106 376 C252 405 533 405 694 377" fill="none" stroke="#111418" stroke-width="9" stroke-linecap="round" opacity="0.72"/>
    <path d="M201 239 L313 207 M236 262 L352 224 M282 276 L392 236" stroke="#ffffff" stroke-width="11" stroke-linecap="round" opacity="0.92"/>
    <path d="M552 199 C580 231 614 254 657 267" fill="none" stroke="#ffffff" stroke-width="13" stroke-linecap="round" opacity="0.75"/>
    <path d="M131 402 L157 430 M220 410 L245 442 M313 414 L338 446 M407 415 L431 447 M501 412 L526 442 M599 404 L626 432" stroke="#111418" stroke-width="8" stroke-linecap="round" opacity="0.7"/>
  </g>


  <text x="56" y="568" fill="#111418" font-family="Arial, Helvetica, sans-serif" font-size="31" font-weight="800">RoadFlow 880</text>
  <text x="56" y="604" fill="#5e6874" font-family="Arial, Helvetica, sans-serif" font-size="18" font-weight="700">ShopMate Sports</text>

</svg>
