<svg xmlns="http://www.w3.org/2000/svg" width="900" height="640" viewBox="0 0 900 640" role="img" aria-label="Summit Day Pack">

  <defs>
    <linearGradient id="bg" x1="0" y1="0" x2="1" y2="1">
      <stop offset="0" stop-color="#ffedd5"/>
      <stop offset="1" stop-color="#e0f2fe"/>
    </linearGradient>
    <filter id="shadow" x="-20%" y="-20%" width="140%" height="140%">
      <feDropShadow dx="0" dy="22" stdDeviation="18" flood-color="#111418" flood-opacity="0.18"/>
    </filter>
  </defs>
  <rect width="900" height="640" fill="url(#bg)"/>
  <path d="M0 512 C170 470 273 596 446 522 C604 456 715 402 900 452 L900 640 L0 640 Z" fill="#ffffff" opacity="0.65"/>
  <circle cx="748" cy="132" r="94" fill="#f28c28" opacity="0.16"/>
  <circle cx="138" cy="142" r="62" fill="#687484" opacity="0.20"/>


  <g filter="url(#shadow)" transform="translate(236 86)">
    <path d="M156 71 C166 32 203 12 242 12 C282 12 317 32 328 71" fill="none" stroke="#687484" stroke-width="28" stroke-linecap="round"/>
    <path d="M111 80 L374 80 C424 80 460 121 455 174 L430 451 C427 486 397 513 361 513 L125 513 C90 513 60 486 56 451 L31 174 C26 121 61 80 111 80 Z" fill="#1f2937"/>
    <path d="M86 254 C167 294 312 294 399 254 L383 429 C381 451 363 468 340 468 L145 468 C122 468 104 451 102 429 Z" fill="#687484" opacity="0.52"/>
    <path d="M102 149 L382 149 M118 210 L366 210" stroke="#f28c28" stroke-width="13" stroke-linecap="round"/>
    <path d="M60 199 L7 263 M426 199 L478 263" stroke="#111418" stroke-width="22" stroke-linecap="round" opacity="0.56"/>
    <circle cx="243" cy="339" r="38" fill="#f28c28"/>
  </g>


  <text x="56" y="568" fill="#111418" font-family="Arial, Helvetica, sans-serif" font-size="31" font-weight="800">Summit Day Pack</text>
  <text x="56" y="604" fill="#5e6874" font-family="Arial, Helvetica, sans-serif" font-size="18" font-weight="700">ShopMate Sports</text>

</svg>
