<svg xmlns="http://www.w3.org/2000/svg" width="900" height="640" viewBox="0 0 900 640" role="img" aria-label="Tempo Run Cap">

  <defs>
    <linearGradient id="bg" x1="0" y1="0" x2="1" y2="1">
      <stop offset="0" stop-color="#dbeafe"/>
      <stop offset="1" stop-color="#f8fafc"/>
    </linearGradient>
    <filter id="shadow" x="-20%" y="-20%" width="140%" height="140%">
      <feDropShadow dx="0" dy="22" stdDeviation="18" flood-color="#111418" flood-opacity="0.18"/>
    </filter>
  </defs>
  <rect width="900" height="640" fill="url(#bg)"/>
  <path d="M0 512 C170 470 273 596 446 522 C604 456 715 402 900 452 L900 640 L0 640 Z" fill="#ffffff" opacity="0.65"/>
  <circle cx="748" cy="132" r="94" fill="#0a60ff" opacity="0.16"/>
  <circle cx="138" cy="142" r="62" fill="#111418" opacity="0.20"/>


  <g filter="url(#shadow)" transform="translate(128 172)">
    <path d="M118 230 C154 116 269 54 408 64 C536 73 622 149 653 254 C526 213 302 205 118 230 Z" fill="#f8fafc"/>
    <path d="M302 69 C276 135 267 188 274 224" fill="none" stroke="#0a60ff" stroke-width="13" stroke-linecap="round"/>
    <path d="M409 64 C417 126 416 181 405 224" fill="none" stroke="#0a60ff" stroke-width="13" stroke-linecap="round"/>
    <path d="M116 230 C248 213 458 213 653 254 C682 260 698 290 685 314 C664 353 550 348 414 318 C285 290 176 286 81 310 C49 318 29 291 42 265 C51 248 76 236 116 230 Z" fill="#0a60ff"/>
    <path d="M172 220 C300 200 475 207 607 239" fill="none" stroke="#111418" stroke-width="9" stroke-linecap="round" opacity="0.72"/>
  </g>


  <text x="56" y="568" fill="#111418" font-family="Arial, Helvetica, sans-serif" font-size="31" font-weight="800">Tempo Run Cap</text>
  <text x="56" y="604" fill="#5e6874" font-family="Arial, Helvetica, sans-serif" font-size="18" font-weight="700">ShopMate Sports</text>

</svg>
