<?xml version="1.0" encoding="utf-8"?>
<!-- Generator: Adobe Illustrator 23.0.6, SVG Export Plug-In . SVG Version: 6.00 Build 0)  -->
<svg version="1.1" id="Layer_1" xmlns="http://www.w3.org/2000/svg" xmlns:xlink="http://www.w3.org/1999/xlink" x="0px" y="0px"
	 viewBox="0 0 107 32.8" style="enable-background:new 0 0 107 32.8;" xml:space="preserve">
<style type="text/css">
	.st0{fill:#FFFFFF;}
</style>
<title>splunk-logo</title>
<path class="st0" d="M11.5,19.8c0,0.7-0.1,1.4-0.4,2c-0.3,0.6-0.7,1.1-1.3,1.5c-0.6,0.4-1.2,0.8-1.9,1c-0.8,0.2-1.6,0.4-2.4,0.4
	c-1,0-1.9-0.1-2.8-0.4c-0.9-0.3-1.8-0.8-2.5-1.5l1.4-2.3c0.6,0.5,1.2,0.9,1.8,1.2C3.8,22,4.4,22.2,5,22.1c0.6,0,1.2-0.2,1.7-0.5
	c0.4-0.4,0.7-0.9,0.6-1.4c0-0.2,0-0.5-0.1-0.7c-0.1-0.3-0.2-0.5-0.4-0.7c-0.3-0.3-0.6-0.5-0.9-0.8c-0.4-0.3-0.8-0.6-1.4-1
	c-0.4-0.3-0.9-0.7-1.3-1c-0.4-0.3-0.8-0.6-1.1-1c-0.3-0.4-0.6-0.8-0.8-1.2c-0.2-0.5-0.3-1-0.3-1.6c0-0.6,0.1-1.3,0.4-1.8
	c0.3-0.5,0.7-1,1.2-1.4c0.5-0.4,1.1-0.7,1.7-0.9C5,7.9,5.8,7.8,6.5,7.8c0.8,0,1.7,0.1,2.5,0.3c0.8,0.2,1.5,0.6,2.2,1l-1.3,2
	c-0.8-0.6-1.7-0.9-2.7-0.9c-0.5,0-1,0.1-1.4,0.4c-0.4,0.3-0.6,0.7-0.6,1.1c0,0.4,0.2,0.9,0.5,1.2c0.5,0.5,1.1,1,1.7,1.4
	c0.8,0.6,1.5,1.1,2,1.6c0.5,0.4,0.9,0.8,1.3,1.3c0.3,0.4,0.5,0.8,0.6,1.2C11.5,18.9,11.6,19.4,11.5,19.8"/>
<path class="st0" d="M25.8,16c0.1-1.5-0.3-2.9-1.1-4.2c-0.6-1-1.7-1.6-2.9-1.5c-1.2,0-2.4,0.6-3.1,1.6c-0.8,1.3-1.2,2.9-1.1,4.4
	c-0.1,1.5,0.3,3,1.1,4.3c0.7,1,1.8,1.6,3.1,1.5c0.7,0,1.4-0.2,1.9-0.6c0.5-0.4,0.9-0.9,1.2-1.5c0.3-0.6,0.5-1.3,0.7-2
	C25.7,17.3,25.8,16.7,25.8,16 M30.3,15.8c0,1.2-0.2,2.4-0.6,3.5c-0.4,1-0.9,2-1.6,2.8c-1.4,1.6-3.4,2.5-5.5,2.5
	c-0.5,0-0.9,0-1.4-0.1c-0.4-0.1-0.8-0.2-1.2-0.4c-0.4-0.2-0.8-0.5-1.1-0.8c-0.4-0.4-0.8-0.8-1.2-1.2v10.2h-4.2V8.1h4.2v2.3
	c0.7-0.9,1.5-1.6,2.5-2.1c1-0.5,2-0.7,3.1-0.7c1,0,2,0.2,2.9,0.6c0.9,0.4,1.6,0.9,2.3,1.6c0.7,0.7,1.2,1.6,1.5,2.6
	C30.1,13.6,30.3,14.7,30.3,15.8"/>
<rect x="32.2" y="0.6" class="st0" width="4.2" height="23.7"/>
<path class="st0" d="M50.3,24.3v-2.2c-0.7,0.8-1.6,1.5-2.5,2c-0.9,0.4-2,0.6-3,0.6c-1.1,0-2.2-0.2-3.2-0.8c-0.9-0.5-1.5-1.3-1.9-2.2
	c-0.1-0.2-0.2-0.5-0.2-0.7c-0.1-0.3-0.1-0.6-0.2-0.9c0-0.4-0.1-0.8-0.1-1.1c0-0.4,0-1,0-1.6V8.1h4.2v9.2c0,0.6,0,1.3,0.1,1.9
	c0.1,0.4,0.2,0.8,0.4,1.2c0.5,0.9,1.6,1.5,2.6,1.4c1.4,0.1,2.8-0.7,3.3-2c0.2-0.4,0.3-0.8,0.3-1.1c0.1-0.6,0.1-1.2,0.1-1.8V8.1h4.2
	v16.2H50.3z"/>
<path class="st0" d="M68.7,24.3V15c0-0.6,0-1.3-0.1-1.9c-0.1-0.4-0.2-0.8-0.4-1.2c-0.5-0.9-1.6-1.5-2.6-1.4c-0.7,0-1.4,0.2-2.1,0.5
	c-0.6,0.3-1,0.9-1.3,1.5c-0.2,0.4-0.3,0.8-0.3,1.2c-0.1,0.6-0.1,1.2-0.1,1.8v8.7h-4.3V8.1h4.3v2.2c0.7-0.8,1.6-1.5,2.5-2
	c0.9-0.4,2-0.6,3-0.6c1.1,0,2.2,0.2,3.2,0.8c0.9,0.5,1.5,1.3,1.9,2.2c0.1,0.2,0.2,0.5,0.2,0.7c0.1,0.3,0.1,0.6,0.2,0.9
	c0,0.4,0.1,0.8,0.1,1.1c0,0.4,0,1,0,1.6v9.2L68.7,24.3z"/>
<polygon class="st0" points="86.6,24.6 80.2,15.7 80.2,24.3 75.9,24.3 75.9,0.6 80.2,0.6 80.2,14.5 80.6,14.5 86.3,7.9 89.5,9.3 
	84.1,15.1 90.5,23.2 "/>
<polygon class="st0" points="94.2,23.8 94.2,21 104.2,16.1 94.2,11.2 94.2,8.3 107.1,14.8 107.1,17.4 "/>
<path class="st0" d="M95.5,4.1c0.8,0,1.4,0.7,1.4,1.5c0,0.8-0.7,1.4-1.5,1.4C94.6,7,94,6.4,94,5.6C94,4.8,94.6,4.1,95.5,4.1
	C95.4,4.1,95.4,4.1,95.5,4.1L95.5,4.1z M95.5,4.3c-0.7,0-1.2,0.6-1.2,1.2c0,0,0,0,0,0c0,0.6,0.5,1.2,1.2,1.2c0.6,0,1.2-0.5,1.2-1.2
	c0,0,0,0,0,0C96.7,4.9,96.1,4.4,95.5,4.3C95.5,4.3,95.5,4.3,95.5,4.3L95.5,4.3z M95.2,6.4h-0.3V4.8c0.2,0,0.3,0,0.5,0
	c0.2,0,0.3,0,0.5,0.1C96,5,96.1,5.1,96,5.2c0,0.2-0.1,0.4-0.3,0.4l0,0C95.9,5.6,96,5.8,96,6c0,0.1,0,0.3,0.1,0.4h-0.3
	c-0.1-0.1-0.1-0.3-0.1-0.4c0-0.2-0.1-0.3-0.3-0.3c0,0,0,0,0,0h-0.2V6.4z M95.2,5.5h0.2c0.2,0,0.4-0.1,0.4-0.3S95.7,5,95.4,5h-0.2
	V5.5z"/>
</svg>
