<svg width="1222" height="640" viewBox="0 0 1222 640" fill="none" xmlns="http://www.w3.org/2000/svg">
<g opacity="0.7" clip-path="url(#clip0)">
<g opacity="0.5">
<path opacity="0.4" d="M1256.16 264.154C1255.19 263.577 1254.23 263 1253.27 262.616C1280.02 237.234 1274.25 203.585 1235.95 181.472C1190.91 155.514 1118.35 155.322 1073.7 181.088C1073.31 181.28 1073.12 181.472 1072.73 181.664C1050.6 173.588 1020.96 175.127 1001.71 186.087C979.388 198.97 979.58 219.737 1001.71 232.812L1155.69 321.647C1155.88 321.839 1156.07 321.839 1156.26 322.031C1183.98 337.991 1229.02 338.183 1256.54 322.224C1284.06 306.072 1283.87 280.114 1256.16 264.154Z" fill="#ADADAD"/>
<path d="M1256.16 233.228C1255.19 232.651 1254.23 232.074 1253.27 231.689C1280.02 206.308 1274.25 172.658 1235.95 150.546C1190.91 124.587 1118.35 124.395 1073.7 150.161C1073.31 150.353 1073.12 150.546 1072.73 150.738C1050.6 142.662 1020.96 144.2 1001.71 155.16C979.388 168.043 979.58 188.81 1001.71 201.885L1155.69 290.72C1155.88 290.913 1156.07 290.913 1156.26 291.105C1183.98 307.064 1229.02 307.257 1256.54 291.297C1284.06 275.145 1283.87 249.379 1256.16 233.228Z" fill="white"/>
</g>
<g opacity="0.11">
<g opacity="0.11">
<path opacity="0.11" d="M930.019 684.087L1097.42 587.505" stroke="#F2F2F2" stroke-width="5" stroke-linecap="round" stroke-linejoin="round" stroke-dasharray="17.69 17.69"/>
<path opacity="0.11" d="M1111.65 579.353L1127.97 569.945L1111.86 560.329" stroke="#F2F2F2" stroke-width="5" stroke-linecap="round" stroke-linejoin="round"/>
<path opacity="0.11" d="M1092.61 549.04L1061.64 530.853" stroke="#F2F2F2" stroke-width="5" stroke-linecap="round" stroke-linejoin="round" stroke-dasharray="11.92 11.92"/>
<path opacity="0.11" d="M1052.01 525.208L1035.9 515.592" stroke="#F2F2F2" stroke-width="5" stroke-linecap="round" stroke-linejoin="round"/>
</g>
</g>
<g opacity="0.6">
<g opacity="0.8">
<path fill-rule="evenodd" clip-rule="evenodd" d="M1045.41 654.805L768.462 814.643C754.33 822.901 732.857 823.635 720.561 816.662L479.033 677.194C466.736 670.037 468.205 657.741 482.52 649.483L759.286 489.646C773.418 481.388 794.891 480.654 807.187 487.627L1048.71 627.095C1061.01 634.252 1059.54 646.547 1045.41 654.805Z" fill="white" fill-opacity="0.98"/>
<path fill-rule="evenodd" clip-rule="evenodd" d="M1045.41 631.372L768.463 791.21C754.331 799.468 732.858 800.202 720.562 793.228L479.034 653.76C466.738 646.603 468.206 634.308 482.521 626.05L759.287 466.212C773.419 457.954 794.892 457.22 807.188 464.194L1048.72 603.662C1061.01 610.819 1059.54 623.114 1045.41 631.372Z" fill="#B6B6B6"/>
</g>
<path fill-rule="evenodd" clip-rule="evenodd" d="M1354.35 529.719L1012.71 726.891C995.281 737.078 968.792 737.983 953.623 729.381L655.682 557.337C640.513 548.508 642.324 533.341 659.983 523.155L1001.39 325.983C1018.83 315.796 1045.32 314.891 1060.48 323.493L1358.43 495.537C1373.59 504.366 1371.78 519.533 1354.35 529.719Z" fill="#F8F8F8"/>
<path fill-rule="evenodd" clip-rule="evenodd" d="M1354.35 500.813L1012.71 697.984C995.281 708.171 968.792 709.076 953.624 700.474L655.682 528.43C640.513 519.602 642.324 504.435 659.984 494.248L1001.39 297.076C1018.83 286.89 1045.32 285.984 1060.48 294.586L1358.43 466.63C1373.59 475.459 1371.78 490.626 1354.35 500.813Z" fill="white"/>
<path fill-rule="evenodd" clip-rule="evenodd" d="M434.222 696.975L197.794 833.426C185.73 840.476 167.399 841.103 156.901 835.15L-49.2873 716.088C-59.7848 709.978 -58.5313 699.482 -46.3104 692.432L189.961 555.98C202.025 548.931 220.356 548.304 230.854 554.257L437.042 673.319C447.54 679.429 446.286 689.925 434.222 696.975Z" fill="#1A1C20"/>
<path fill-rule="evenodd" clip-rule="evenodd" d="M434.223 676.97L197.795 813.422C185.731 820.471 167.399 821.098 156.902 815.145L-49.2869 696.083C-59.7843 689.973 -58.5309 679.477 -46.31 672.427L189.961 535.976C202.025 528.926 220.357 528.299 230.854 534.252L437.043 653.315C447.54 659.424 446.287 669.921 434.223 676.97Z" fill="#F8F8F8"/>
</g>
<path opacity="0.3" fill-rule="evenodd" clip-rule="evenodd" d="M1015.22 537.763L738.271 697.6C724.139 705.858 702.666 706.592 690.37 699.619L448.842 560.151C436.546 552.994 438.014 540.699 452.329 532.441L729.095 372.603C743.227 364.345 764.7 363.611 776.996 370.585L1018.52 510.053C1030.82 517.21 1029.35 529.505 1015.22 537.763Z" fill="#B3B3B3"/>
<path fill-rule="evenodd" clip-rule="evenodd" d="M1015.22 473.442L738.269 633.28C724.137 641.538 702.664 642.272 690.368 635.298L448.84 495.83C436.544 488.673 438.012 476.378 452.327 468.12L729.093 308.283C743.225 300.025 764.698 299.291 776.995 306.264L1018.52 445.732C1030.82 452.889 1029.35 465.184 1015.22 473.442Z" fill="#F8F8F8"/>
<path d="M440.384 483.931V457.666L1023.22 428.627L1026.82 430.951V457.707L1015.26 464.913L726.198 627.443H696.039L457.569 494.732L440.384 483.931Z" fill="#F8F8F8"/>
<path fill-rule="evenodd" clip-rule="evenodd" d="M1015.22 447.428L738.269 607.265C724.137 615.523 702.664 616.257 690.368 609.284L448.84 469.816C436.544 462.659 438.012 450.364 452.327 442.106L729.093 282.268C743.225 274.01 764.698 273.276 776.995 280.25L1018.52 419.718C1030.82 426.875 1029.35 439.17 1015.22 447.428Z" fill="white"/>
<path opacity="0.8" d="M870.651 464.787L803.746 503.424L813.304 508.671L880.209 470.511L870.651 464.787Z" fill="#B2B2B2"/>
<path opacity="0.8" d="M931.212 410.402L789.411 495.315L798.968 500.562L940.77 416.126L931.212 410.402Z" fill="#B2B2B2"/>
<path opacity="0.8" d="M896.553 415.211L775.073 486.729L784.631 492.453L906.111 420.458L896.553 415.211Z" fill="#B2B2B2"/>
<path d="M870.651 454.463L803.746 493.1L813.304 498.347L880.209 460.187L870.651 454.463Z" fill="#F0F0F0"/>
<path d="M931.934 402.46L789.411 484.991L798.969 490.238L941.492 408.184L931.934 402.46Z" fill="#F0F0F0"/>
<path d="M895.109 406.547L775.072 476.405L784.63 482.129L904.667 411.794L895.109 406.547Z" fill="#F0F0F0"/>
<path opacity="0.8" d="M768.552 443.776L734.921 463.133L744.479 468.858L778.11 449.023L768.552 443.776Z" fill="#B2B2B2"/>
<path d="M768.551 433.452L734.921 452.81L744.479 458.534L778.109 438.699L768.551 433.452Z" fill="#F0F0F0"/>
<path d="M714.992 425.85L742.44 409.868L726.429 400.736L698.981 416.717L714.992 425.85Z" fill="#DADADA"/>
<path d="M618.926 481.1L646.373 465.119L628.075 454.616L600.627 470.598L618.926 481.1Z" fill="#DADADA"/>
<path d="M586.902 499.365L614.349 483.84L602.913 476.991L575.465 492.972L586.902 499.365Z" fill="#DADADA"/>
<path d="M682.971 444.114L710.419 428.133L689.833 416.717L662.385 432.242L682.971 444.114Z" fill="#DADADA"/>
<path d="M650.947 462.835L678.394 446.854L660.096 436.352L632.648 452.333L650.947 462.835Z" fill="#DADADA"/>
<path d="M687.545 409.868L714.993 394.343L689.833 379.731L662.385 395.713L687.545 409.868Z" fill="#E5E6EB"/>
<path d="M590.104 464.662L617.552 448.68L598.339 437.722L570.891 453.703L590.104 464.662Z" fill="#E5E6EB"/>
<path d="M554.88 481.1L582.328 465.118L550.305 446.854L522.857 462.835L554.88 481.1Z" fill="#5EC3EB"/>
<path d="M650.947 425.85L678.395 409.868L653.234 395.713L625.786 411.238L650.947 425.85Z" fill="#E5E6EB"/>
<path d="M625.787 448.224L653.235 432.242L639.511 424.48L612.063 440.461L625.787 448.224Z" fill="#5EC3EB"/>
<path d="M698.981 416.717L726.429 400.736L714.992 394.343L687.544 409.868L698.981 416.717Z" fill="#5EC3EB"/>
<path d="M601.085 470.598L628.533 455.073L617.554 448.68L590.106 464.662L601.085 470.598Z" fill="#5EC3EB"/>
<path d="M575.924 492.972L603.372 477.447L582.329 465.119L554.881 481.1L575.924 492.972Z" fill="#62F4F4" fill-opacity="0.4"/>
<path d="M662.385 432.242L689.833 416.717L678.396 409.868L650.948 425.85L662.385 432.242Z" fill="#5EC3EB"/>
<path d="M632.648 452.333L660.096 436.352L653.234 432.242L625.786 448.224L632.648 452.333Z" fill="#62F4F4" fill-opacity="0.4"/>
<g opacity="0.8">
<path d="M695.983 500.543V531.213H762.364C762.364 514.309 732.708 500.543 695.983 500.543Z" fill="#D1D1D1"/>
<path d="M695.981 500.543C659.256 500.543 629.6 514.309 629.6 531.213C629.6 548.116 659.428 561.883 695.981 561.883C714.258 561.883 730.982 558.398 742.879 552.821L695.981 531.213V500.543Z" fill="#D1D1D1"/>
<path d="M695.983 531.213L742.881 552.995C754.95 547.419 762.364 539.751 762.364 531.213H695.983Z" fill="#D1D1D1"/>
</g>
<path d="M695.983 488.609V519.279H762.365C762.365 502.376 732.709 488.609 695.983 488.609Z" fill="#A2A4AD"/>
<path d="M695.982 488.61C659.256 488.61 629.6 502.377 629.6 519.28C629.6 536.183 659.429 549.95 695.982 549.95C714.258 549.95 730.983 546.465 742.88 540.888L695.982 519.28V488.61Z" fill="#E3E3E3"/>
<path d="M695.983 519.279L742.881 541.062C754.951 535.485 762.365 527.818 762.365 519.279H695.983Z" fill="#DBF8F8"/>
<g opacity="0.6">
<path d="M1204.93 536.901L1242.91 514.785L1220.76 502.147L1182.77 524.263L1204.93 536.901Z" fill="#BEBEBE"/>
<path d="M1071.99 613.36L1109.97 591.244L1084.65 576.71L1046.66 598.827L1071.99 613.36Z" fill="#BEBEBE"/>
<path d="M1027.67 638.636L1065.65 617.151L1049.83 607.673L1011.84 629.789L1027.67 638.636Z" fill="#BEBEBE"/>
<path d="M1160.61 562.177L1198.6 540.061L1170.11 524.263L1132.13 545.748L1160.61 562.177Z" fill="#BEBEBE"/>
<path d="M1116.3 588.084L1154.28 565.968L1128.96 551.434L1090.97 573.551L1116.3 588.084Z" fill="#BEBEBE"/>
<path d="M1166.95 514.785L1204.93 493.3L1170.11 473.08L1132.13 495.196L1166.95 514.785Z" fill="#9A5CEC"/>
<path d="M1032.1 590.612L1070.08 568.496L1043.5 553.33L1005.51 575.447L1032.1 590.612Z" fill="#A2A4AD"/>
<path d="M983.355 613.36L1021.34 591.244L977.024 565.968L939.04 588.084L983.355 613.36Z" fill="#9A5CEC"/>
<path d="M1116.3 536.901L1154.28 514.785L1119.46 495.196L1081.48 516.681L1116.3 536.901Z" fill="#A2A4AD"/>
<path d="M1081.48 567.864L1119.47 545.748L1100.47 535.005L1062.49 557.122L1081.48 567.864Z" fill="#A2A4AD"/>
<path d="M1182.77 524.263L1220.75 502.147L1204.93 493.301L1166.94 514.785L1182.77 524.263Z" fill="#E8E8E8"/>
<path d="M1047.3 598.827L1085.28 577.342L1070.09 568.496L1032.1 590.612L1047.3 598.827Z" fill="#A870EF"/>
<path d="M1012.48 629.789L1050.46 608.305L1021.34 591.244L983.356 613.36L1012.48 629.789Z" fill="#00CFCF"/>
<path d="M1132.13 545.748L1170.11 524.263L1154.28 514.785L1116.3 536.901L1132.13 545.748Z" fill="#E8E8E8"/>
<path d="M1090.98 573.551L1128.96 551.435L1119.46 545.748L1081.48 567.864L1090.98 573.551Z" fill="#00CFCF"/>
</g>
<path opacity="0.4" fill-rule="evenodd" clip-rule="evenodd" d="M462.007 643.592L262.704 758.618C252.534 764.56 237.081 765.089 228.232 760.07L54.4197 659.704C45.5705 654.553 46.6271 645.705 56.9291 639.762L256.1 524.737C266.27 518.794 281.723 518.266 290.572 523.284L464.385 623.651C473.234 628.801 472.177 637.649 462.007 643.592Z" fill="#B3B3B3"/>
<path fill-rule="evenodd" clip-rule="evenodd" d="M462.006 597.304L262.703 712.33C252.533 718.273 237.08 718.801 228.231 713.783L54.4182 613.416C45.5691 608.265 46.6257 599.417 56.9276 593.475L256.099 478.449C266.269 472.506 281.722 471.978 290.571 476.996L464.383 577.363C473.232 582.514 472.176 591.362 462.006 597.304Z" fill="#F8F8F8"/>
<path d="M48.3326 604.853V585.952L467.764 565.054L470.353 566.726V585.981L462.036 591.167L254.016 708.129H232.312L60.6994 612.625L48.3326 604.853Z" fill="#F8F8F8"/>
<path fill-rule="evenodd" clip-rule="evenodd" d="M462.006 578.583L262.703 693.609C252.533 699.552 237.08 700.08 228.231 695.062L54.4182 594.695C45.5691 589.545 46.6257 580.696 56.9276 574.754L256.099 459.728C266.269 453.785 281.722 453.257 290.571 458.275L464.383 558.642C473.232 563.793 472.176 572.641 462.006 578.583Z" fill="white"/>
<path opacity="0.8" d="M328.773 530.06L267.777 565.285L276.491 570.068L337.487 535.278L328.773 530.06Z" fill="#D1D1D1"/>
<path opacity="0.8" d="M339.666 508.751L254.707 557.892L263.421 562.675L348.38 513.969L339.666 508.751Z" fill="#D1D1D1"/>
<path opacity="0.8" d="M283.026 526.581L241.636 550.064L250.35 555.282L291.74 531.364L283.026 526.581Z" fill="#D1D1D1"/>
<path d="M328.773 520.648L267.777 555.873L276.491 560.656L337.487 525.866L328.773 520.648Z" fill="#F2F2F2"/>
<path d="M339.666 499.338L254.707 548.479L263.421 553.263L348.38 504.557L339.666 499.338Z" fill="#F2F2F2"/>
<path d="M283.026 517.168L241.635 540.652L250.349 545.87L291.739 521.952L283.026 517.168Z" fill="#F2F2F2"/>
<path opacity="0.8" d="M235.691 510.905L205.03 528.553L213.744 533.771L244.404 515.688L235.691 510.905Z" fill="#D1D1D1"/>
<path d="M235.69 501.492L205.03 519.14L213.744 524.359L244.404 506.276L235.69 501.492Z" fill="#F2F2F2"/>
<path opacity="0.8" d="M324.492 613.658L239.533 662.799L248.247 667.583L333.206 618.876L324.492 613.658Z" fill="#CBC9C9"/>
<path opacity="0.8" d="M267.852 631.488L226.462 654.971L235.176 660.19L276.566 636.272L267.852 631.488Z" fill="#CBC9C9"/>
<path d="M324.492 604.246L239.533 653.387L248.247 658.171L333.206 609.464L324.492 604.246Z" fill="#F3F3F3"/>
<path d="M267.852 622.076L226.462 645.559L235.175 650.778L276.565 626.859L267.852 622.076Z" fill="#F3F3F3"/>
<path opacity="0.8" d="M232.07 623.766L201.409 641.414L210.123 646.632L240.783 628.549L232.07 623.766Z" fill="#CBC9C9"/>
<path d="M232.069 614.353L201.409 632.002L210.123 637.22L240.783 619.137L232.069 614.353Z" fill="#F3F3F3"/>
<g opacity="0.8">
<path d="M169.531 562.658V590.619H230.05C230.05 575.209 203.013 562.658 169.531 562.658Z" fill="#CBC9C9"/>
<path d="M169.53 562.658C136.048 562.658 109.011 575.209 109.011 590.62C109.011 606.03 136.205 618.581 169.53 618.581C186.192 618.581 201.439 615.403 212.286 610.32L169.53 590.62V562.658Z" fill="#CBC9C9"/>
<path d="M169.531 590.619L212.287 610.478C223.29 605.394 230.05 598.404 230.05 590.619H169.531Z" fill="#CBC9C9"/>
</g>
<path d="M169.53 607.701L169.53 579.74L109.011 579.74C109.011 595.15 136.048 607.701 169.53 607.701Z" fill="#DBF8F8"/>
<path d="M169.531 607.701C203.013 607.701 230.05 595.15 230.05 579.739C230.05 564.329 202.856 551.778 169.531 551.778C152.869 551.778 137.622 554.956 126.775 560.039L169.531 579.739L169.531 607.701Z" fill="#D6C1F2"/>
<path d="M169.53 579.74L126.774 559.881C115.771 564.965 109.011 571.955 109.011 579.74L169.53 579.74Z" fill="#8CD2EE"/>
<g opacity="0.4">
<mask id="mask0" mask-type="alpha" maskUnits="userSpaceOnUse" x="312" y="545" width="108" height="49">
<path d="M419.098 569.382C419.098 582.796 395.31 593.72 365.852 593.72C336.394 593.72 312.606 582.934 312.606 569.382C312.606 555.968 336.394 545.044 365.852 545.044C395.31 545.044 419.098 555.968 419.098 569.382ZM365.852 554.17C347.458 554.17 332.521 560.946 332.521 569.382C332.521 577.817 347.458 584.593 365.852 584.593C384.246 584.593 399.182 577.817 399.182 569.382C399.182 560.946 384.246 554.17 365.852 554.17Z" fill="#C4C4C4"/>
</mask>
<g mask="url(#mask0)">
<path d="M365.852 544.675V569.013H419.098C419.098 555.6 395.31 544.675 365.852 544.675Z" fill="#CBC9C9"/>
<path d="M365.852 544.675C336.394 544.675 312.606 555.6 312.606 569.013C312.606 582.427 336.394 593.352 365.852 593.352C380.512 593.352 393.927 590.586 403.47 586.161L365.852 569.013V544.675Z" fill="#CBC9C9"/>
<path d="M365.852 569.013L403.47 586.299C413.151 581.874 419.098 575.789 419.098 569.013H365.852Z" fill="#CBC9C9"/>
</g>
</g>
<mask id="mask1" mask-type="alpha" maskUnits="userSpaceOnUse" x="312" y="497" width="108" height="50">
<path d="M419.098 521.732C419.098 535.145 395.31 546.07 365.852 546.07C336.394 546.07 312.606 535.284 312.606 521.732C312.606 508.318 336.394 497.393 365.852 497.393C395.31 497.393 419.098 508.318 419.098 521.732ZM365.852 506.52C347.458 506.52 332.521 513.296 332.521 521.732C332.521 530.167 347.458 536.943 365.852 536.943C384.246 536.943 399.182 530.167 399.182 521.732C399.182 513.296 384.246 506.52 365.852 506.52Z" fill="#C4C4C4"/>
</mask>
<g mask="url(#mask1)">
<path d="M365.852 497.025V521.363H419.098C419.098 507.949 395.31 497.025 365.852 497.025Z" fill="#863FE0"/>
<path d="M365.852 497.025C336.394 497.025 312.606 507.949 312.606 521.363C312.606 534.777 336.394 545.701 365.852 545.701C380.512 545.701 393.927 542.935 403.47 538.51L365.852 521.363V497.025Z" fill="#CFCFCF"/>
<path d="M365.852 521.363L403.47 538.649C413.151 534.223 419.098 528.139 419.098 521.363H365.852Z" fill="#6FE4E4"/>
</g>
<mask id="mask2" mask-type="alpha" maskUnits="userSpaceOnUse" x="312" y="491" width="108" height="50">
<path d="M419.098 515.956C419.098 529.37 395.31 540.294 365.852 540.294C336.394 540.294 312.606 529.508 312.606 515.956C312.606 502.542 336.394 491.618 365.852 491.618C395.31 491.618 419.098 502.542 419.098 515.956ZM365.852 500.744C347.458 500.744 332.521 507.52 332.521 515.956C332.521 524.391 347.458 531.167 365.852 531.167C384.246 531.167 399.182 524.391 399.182 515.956C399.182 507.52 384.246 500.744 365.852 500.744Z" fill="#C4C4C4"/>
</mask>
<g mask="url(#mask2)">
<path d="M365.852 491.249V515.587H419.098C419.098 502.174 395.31 491.249 365.852 491.249Z" fill="#C9AAF1"/>
<path d="M365.852 491.249C336.394 491.249 312.606 502.173 312.606 515.587C312.606 529.001 336.394 539.925 365.852 539.925C380.512 539.925 393.927 537.16 403.47 532.735L365.852 515.587V491.249Z" fill="#F3F3F3"/>
<path d="M365.852 515.587L403.47 532.873C413.151 528.448 419.098 522.363 419.098 515.587H365.852Z" fill="#D0F9F9"/>
</g>
<g opacity="0.8">
<path opacity="0.3" d="M1124.88 409.391L1090.58 389.578L1124.66 369.898L1101.76 356.69L1067.68 376.37L1033.38 356.558L1010.66 369.678L1044.96 389.49L1010.88 409.17L1033.78 422.379L1067.86 402.698L1102.16 422.511L1124.88 409.391Z" fill="#B2B2B2"/>
<path d="M1125.22 362.833L1090.92 343.02L1125 323.34L1102.1 310.132L1068.02 329.812L1033.72 310L1011 323.12L1045.3 342.932L1011.22 362.612L1034.12 375.821L1068.2 356.14L1102.5 375.953L1125.22 362.833Z" fill="#D8D4D4"/>
<path d="M1124.88 347.667L1090.58 327.854L1124.66 308.174L1101.76 294.966L1067.68 314.646L1033.38 294.834L1010.66 307.954L1044.96 327.766L1010.88 347.446L1033.78 360.655L1067.86 340.974L1102.16 360.787L1124.88 347.667Z" fill="#F0F0F0"/>
</g>
<g opacity="0.8">
<path opacity="0.3" d="M798.294 371.305L781.45 361.576L798.186 351.912L786.942 345.425L770.206 355.09L753.362 345.361L742.204 351.803L759.048 361.533L742.312 371.197L753.556 377.683L770.292 368.019L787.137 377.748L798.294 371.305Z" fill="#08080A"/>
<path d="M798.294 360.757L781.45 351.028L798.186 341.363L786.942 334.877L770.206 344.541L753.362 334.812L742.204 341.255L759.048 350.984L742.312 360.649L753.556 367.135L770.292 357.47L787.137 367.2L798.294 360.757Z" fill="#C9C9C9"/>
<path d="M798.294 353.99L781.45 344.26L798.186 334.596L786.942 328.11L770.206 337.774L753.362 328.045L742.204 334.488L759.048 344.217L742.312 353.882L753.556 360.368L770.292 350.703L787.137 360.433L798.294 353.99Z" fill="#E8E8E8"/>
</g>
<path d="M1210.33 172.064C1209.62 171.637 1208.91 171.21 1208.2 170.926C1228 152.137 1223.73 127.227 1195.37 110.858C1162.03 91.6416 1108.32 91.4992 1075.27 110.573C1074.98 110.715 1074.84 110.858 1074.55 111C1058.17 105.022 1036.23 106.16 1021.98 114.274C1005.45 123.811 1005.59 139.184 1021.98 148.863L1135.96 214.624C1136.1 214.767 1136.25 214.767 1136.39 214.909C1156.9 226.723 1190.24 226.866 1210.62 215.051C1230.99 203.095 1230.85 183.879 1210.33 172.064Z" fill="#F8F8F8"/>
<path d="M1210.33 221.465C1209.62 221.038 1208.91 220.611 1208.2 220.326C1228 201.537 1223.73 176.627 1195.37 160.258C1162.03 141.042 1108.32 140.9 1075.27 159.973C1074.98 160.116 1074.84 160.258 1074.55 160.4C1058.17 154.422 1036.23 155.561 1021.98 163.674C1005.45 173.211 1005.59 188.584 1021.98 198.263L1135.96 264.025C1136.1 264.167 1136.25 264.167 1136.39 264.31C1156.9 276.124 1190.24 276.266 1210.62 264.452C1230.99 252.495 1230.85 233.279 1210.33 221.465Z" fill="#D7D7D7" fill-opacity="0.5"/>
<path d="M1210.33 149.171C1209.62 148.744 1208.91 148.316 1208.2 148.032C1228 129.243 1223.73 104.333 1195.37 87.9638C1162.03 68.7477 1108.32 68.6054 1075.27 87.6791C1074.98 87.8214 1074.84 87.9638 1074.55 88.1061C1058.17 82.1278 1036.23 83.2665 1021.98 91.38C1005.45 100.917 1005.59 116.29 1021.98 125.969L1135.96 191.731C1136.1 191.873 1136.25 191.873 1136.39 192.015C1156.9 203.83 1190.24 203.972 1210.62 192.158C1230.99 180.201 1230.85 161.127 1210.33 149.171Z" fill="white"/>
<g clip-path="url(#clip1)">
<g opacity="0.6">
<path d="M1134.36 98.2662V122.425H1186.65C1186.65 109.11 1163.29 98.2662 1134.36 98.2662Z" fill="#B6B6B6"/>
<path d="M1134.36 98.2662C1105.43 98.2662 1082.07 109.11 1082.07 122.425C1082.07 135.74 1105.56 146.584 1134.36 146.584C1148.75 146.584 1161.93 143.839 1171.3 139.447L1134.36 122.425V98.2662Z" fill="#B6B6B6"/>
<path d="M1134.36 122.425L1171.3 139.584C1180.81 135.191 1186.65 129.151 1186.65 122.425H1134.36Z" fill="#B6B6B6"/>
</g>
<path d="M1134.36 91.4028V115.562H1186.65C1186.65 102.247 1163.29 91.4028 1134.36 91.4028Z" fill="#2E95BE"/>
<path d="M1134.36 91.4028C1105.43 91.4028 1082.07 102.247 1082.07 115.562C1082.07 128.877 1105.56 139.721 1134.36 139.721C1148.75 139.721 1161.93 136.976 1171.3 132.583L1134.36 115.562V91.4028Z" fill="#E8E8E8"/>
<path d="M1134.36 115.562L1171.3 132.72C1180.81 128.328 1186.65 122.288 1186.65 115.562H1134.36Z" fill="#00CFCF"/>
<g clip-path="url(#clip2)">
<g opacity="0.8">
<path opacity="0.8" d="M1184.59 34.2988C1184.59 27.1268 1179.92 20.0412 1170.56 14.5974C1151.73 3.62343 1121.2 3.53702 1102.25 14.4246C1092.78 19.8684 1087.98 27.1268 1087.98 34.2988V115.876C1087.98 123.048 1095.01 126.59 1105.07 131.343C1121.44 139.12 1154.42 139.12 1170.21 131.343C1177.23 127.887 1184.59 123.048 1184.59 115.876V34.2988Z" fill="url(#paint0_linear)"/>
</g>
</g>
</g>
<path d="M1200.83 79.71L1178.68 66.9304C1185.83 61.2954 1189.86 54.654 1189.76 47.5096C1189.65 29.3968 1164.17 14.7054 1132.75 14.6048C1101.42 14.6048 1075.94 29.2962 1076.04 47.3083C1076.14 65.421 1101.62 80.1125 1133.05 80.2131C1146.24 80.2131 1158.83 77.5968 1168.91 72.8674L1190.76 85.4457C1192.17 86.2507 1193.99 86.6532 1195.8 86.6532C1197.61 86.6532 1199.42 86.2507 1200.83 85.4457C1203.65 83.8356 1203.65 81.32 1200.83 79.71ZM1132.95 71.9617C1109.48 71.9617 1090.24 60.8929 1090.24 47.3083C1090.24 33.7238 1109.28 22.7555 1132.85 22.7555C1156.42 22.7555 1175.55 33.8244 1175.55 47.4089C1175.55 53.9496 1171.12 60.0879 1163.06 64.7167C1155.01 69.4461 1144.33 72.0624 1132.95 71.9617Z" fill="#3BA5FF"/>
<path d="M1168.91 72.8673L1190.76 85.4456C1192.17 86.2507 1193.99 86.6532 1195.8 86.6532C1197.61 86.6532 1199.42 86.2507 1200.83 85.4456C1202.24 84.6406 1202.95 83.6344 1202.95 82.5275C1202.95 81.5212 1202.95 69.8486 1202.95 70.9554C1202.95 71.9617 1202.24 73.0686 1200.83 73.8736C1199.42 74.6786 1197.61 75.0811 1195.8 75.0811C1193.99 75.0811 1192.17 74.6786 1190.76 73.8736L1168.91 61.2953V72.8673Z" fill="url(#paint1_linear)"/>
<path d="M1168.91 61.2953C1158.73 66.1254 1146.24 68.641 1133.05 68.641C1101.62 68.641 1076.14 53.849 1076.04 35.7363V47.3083C1076.14 65.421 1101.62 80.1124 1133.05 80.213C1146.24 80.213 1158.83 77.5968 1168.91 72.8673V61.2953ZM1178.68 66.8298C1185.83 61.1947 1189.86 54.5534 1189.76 47.4089V35.9375C1189.76 42.9814 1185.83 49.7233 1178.68 55.3584V66.8298Z" fill="url(#paint2_linear)"/>
<path d="M1175.55 35.8369C1175.55 22.2524 1156.32 11.1835 1132.85 11.1835C1109.38 11.1835 1090.24 22.2524 1090.24 35.7363V47.3083C1090.24 33.7238 1109.28 22.7555 1132.85 22.7555C1156.42 22.7555 1175.55 33.8244 1175.55 47.4089V35.8369Z" fill="url(#paint3_linear)"/>
<path d="M1202.95 71.0561C1202.95 71.0561 1202.95 70.9555 1202.95 71.0561C1202.95 70.9555 1202.95 70.9555 1202.95 71.0561C1202.95 69.9492 1202.25 68.9429 1200.84 68.1379L1185.83 59.4841C1188.45 55.7609 1189.76 51.6352 1189.76 47.5096V35.9375C1189.66 17.8248 1164.17 3.13339 1132.75 3.03277C1101.32 2.93214 1075.94 17.7242 1076.04 35.7363V47.3083C1076.14 65.421 1101.62 80.1124 1133.05 80.2131C1146.24 80.2131 1158.83 77.5968 1168.91 72.8674L1190.76 85.4456C1192.17 86.2506 1193.99 86.6531 1195.8 86.6531C1197.61 86.6531 1199.43 86.2506 1200.84 85.4456C1202.25 84.6406 1202.95 83.6344 1202.95 82.5275C1202.95 81.6218 1202.95 71.9617 1202.95 71.0561ZM1091.45 41.472C1095.98 30.705 1112.8 22.7555 1132.85 22.7555C1152.89 22.7555 1169.81 30.9062 1174.35 41.6732C1172.53 46.0002 1168.7 49.9246 1163.06 53.1446C1155.01 57.7734 1144.33 60.3897 1132.95 60.3897C1112.9 60.3897 1095.98 52.3396 1091.45 41.472Z" fill="#A876E7"/>
<path d="M1200.83 68.1379L1178.68 55.3584C1185.83 49.7233 1189.86 43.082 1189.76 35.9375C1189.65 17.8248 1164.17 3.13339 1132.75 3.03277C1101.32 2.93214 1075.94 17.7242 1076.04 35.7363C1076.14 53.849 1101.62 68.5404 1133.05 68.641C1146.24 68.641 1158.83 66.0248 1168.91 61.2953L1190.76 73.8736C1192.17 74.6786 1193.99 75.0811 1195.8 75.0811C1197.61 75.0811 1199.42 74.6786 1200.83 73.8736C1203.65 72.2636 1203.65 69.7479 1200.83 68.1379ZM1132.95 60.3897C1109.48 60.3897 1090.24 49.3208 1090.24 35.7363C1090.24 22.1517 1109.28 11.1835 1132.85 11.1835C1156.42 11.1835 1175.55 22.2524 1175.55 35.8369C1175.55 42.3776 1171.12 48.5158 1163.06 53.1446C1155.01 57.874 1144.33 60.4903 1132.95 60.3897Z" fill="#D1B7F3"/>
<path d="M1132.85 63.6097C1155.93 63.6097 1174.65 52.7973 1174.65 39.4595C1174.65 26.1216 1155.93 15.3092 1132.85 15.3092C1109.76 15.3092 1091.05 26.1216 1091.05 39.4595C1091.05 52.7973 1109.76 63.6097 1132.85 63.6097Z" fill="url(#paint4_linear)"/>
</g>
<defs>
<linearGradient id="paint0_linear" x1="1088" y1="57.9929" x2="1184.57" y2="57.9929" gradientUnits="userSpaceOnUse">
<stop stop-color="#888EB5" stop-opacity="0.5"/>
<stop offset="0.1622" stop-color="#B2B5D9" stop-opacity="0.1703"/>
<stop offset="0.505208" stop-color="#C1BFE5" stop-opacity="0"/>
<stop offset="0.838542" stop-color="#988CBD" stop-opacity="0.17"/>
<stop offset="1" stop-color="#715F99" stop-opacity="0.5"/>
</linearGradient>
<linearGradient id="paint1_linear" x1="1202.94" y1="73.9613" x2="1168.92" y2="73.9613" gradientUnits="userSpaceOnUse">
<stop stop-color="#998C89"/>
<stop offset="0.3333" stop-color="#787878"/>
<stop offset="0.6666" stop-color="#626E85"/>
<stop offset="1" stop-color="#64666B"/>
</linearGradient>
<linearGradient id="paint2_linear" x1="1189.77" y1="57.987" x2="1076.05" y2="57.987" gradientUnits="userSpaceOnUse">
<stop stop-color="#998C89"/>
<stop offset="0.3333" stop-color="#787878"/>
<stop offset="0.6666" stop-color="#626E85"/>
<stop offset="1" stop-color="#64666B"/>
</linearGradient>
<linearGradient id="paint3_linear" x1="1090.26" y1="29.3477" x2="1175.55" y2="29.3477" gradientUnits="userSpaceOnUse">
<stop stop-color="#808080"/>
<stop offset="0.6666" stop-color="#626E85"/>
<stop offset="1" stop-color="#64666B"/>
</linearGradient>
<linearGradient id="paint4_linear" x1="1147.68" y1="64.9907" x2="1118.16" y2="13.8056" gradientUnits="userSpaceOnUse">
<stop stop-color="#8747DA" stop-opacity="0"/>
<stop offset="1" stop-color="#45D4BA" stop-opacity="0.3"/>
</linearGradient>
<clipPath id="clip0">
<rect width="1222" height="640" fill="white"/>
</clipPath>
<clipPath id="clip1">
<rect width="184.847" height="150.171" fill="white" transform="translate(1042 29.8294)"/>
</clipPath>
<clipPath id="clip2">
<rect width="144.412" height="144.395" fill="white" transform="translate(1131.54 25.4975)"/>
</clipPath>
</defs>
</svg>
