<svg viewBox="0 0 235.59 124.17" xmlns="http://www.w3.org/2000/svg" xmlns:xlink="http://www.w3.org/1999/xlink" overflow="hidden"><style>
.MsftOfcThm_Background1_Fill_v2 {
 fill:#07182D; 
}
</style>
<defs/><g id="Layer_2"><g id="Layer_1-2"><g id="Sky_Blue_RGB"><rect x="66.63" y="82.51" width="10.33" height="40.94" class="cls-1 MsftOfcThm_Background1_Fill_v2" fill="#07182D"/><path d="M160.26 94.24C157.594 92.7891 154.605 92.0357 151.57 92.05 144.89 92.05 140.26 96.7 140.26 102.97 140.26 109.05 144.69 113.9 151.57 113.9 154.601 113.904 157.586 113.158 160.26 111.73L160.26 122.73C157.208 123.673 154.034 124.164 150.84 124.19 139.22 124.19 129.03 116.19 129.03 102.99 129.03 90.77 138.25 81.8 150.84 81.8 154.036 81.8088 157.213 82.3044 160.26 83.27Z" class="cls-1 MsftOfcThm_Background1_Fill_v2" fill="#07182D"/><path d="M52.43 94.24C49.7693 92.7854 46.7823 92.0317 43.75 92.05 37.06 92.05 32.43 96.7 32.43 102.97 32.43 109.05 36.87 113.9 43.75 113.9 46.7789 113.911 49.7625 113.165 52.43 111.73L52.43 122.73C49.3745 123.671 46.197 124.156 43 124.17 31.39 124.17 21.2 116.17 21.2 102.97 21.2 90.75 30.43 81.78 43 81.78 46.1966 81.7866 49.3734 82.2823 52.42 83.25Z" class="cls-1 MsftOfcThm_Background1_Fill_v2" fill="#07182D"/><path d="M214.39 103C214.39 114.71 205.39 124.2 192.76 124.2 180.13 124.2 171.14 114.71 171.14 103 171.14 91.29 180.14 81.81 192.76 81.81 205.38 81.81 214.39 91.31 214.39 103M192.76 92.21C186.812 92.1603 181.95 96.9417 181.9 102.89 181.851 108.838 186.632 113.7 192.58 113.749 198.528 113.799 203.39 109.018 203.44 103.07 203.44 103.046 203.44 103.023 203.44 103 203.54 97.1577 198.884 92.3407 193.042 92.2411 192.948 92.2394 192.854 92.2391 192.76 92.24" class="cls-1 MsftOfcThm_Background1_Fill_v2" fill="#07182D"/><path d="M116.14 91.81C113.504 91.0821 110.793 90.6627 108.06 90.56 103.92 90.56 101.67 91.95 101.67 93.92 101.67 96.41 104.67 97.28 106.41 97.82L109.26 98.72C115.96 100.86 119.02 105.45 119.02 110.43 119.02 120.72 110.02 124.17 102.02 124.17 98.277 124.137 94.5448 123.762 90.87 123.05L90.87 113.63C94.041 114.556 97.3179 115.07 100.62 115.16 105.76 115.16 108.13 113.65 108.13 111.33 108.13 109.26 106.08 108.06 103.52 107.26L101.31 106.54C95.56 104.72 90.77 101.34 90.77 94.54 90.77 86.88 96.5 81.74 106.02 81.74 109.415 81.7873 112.794 82.2234 116.09 83.04Z" class="cls-1 MsftOfcThm_Background1_Fill_v2" fill="#07182D"/><path d="M10.26 38.51C10.26 35.6768 7.96322 33.38 5.13 33.38 2.29678 33.38 1.14441e-07 35.6768 1.14441e-07 38.51L0 49.26C8.88178e-16 52.0932 2.29678 54.39 5.13 54.39 7.96322 54.39 10.26 52.0932 10.26 49.26Z" class="cls-1 MsftOfcThm_Background1_Fill_v2" fill="#07182D"/><path d="M38.43 24.41C38.43 21.5768 36.1332 19.28 33.3 19.28 30.4668 19.28 28.17 21.5768 28.17 24.41L28.17 49.26C28.17 52.0932 30.4668 54.39 33.3 54.39 36.1332 54.39 38.43 52.0932 38.43 49.26Z" class="cls-1 MsftOfcThm_Background1_Fill_v2" fill="#07182D"/><path d="M66.6 5.11C66.6 2.27678 64.3032-0.0199998 61.47-0.0199998 58.6368-0.0199997 56.34 2.27678 56.34 5.11L56.34 59.47C56.34 62.3032 58.6368 64.6 61.47 64.6 64.3032 64.6 66.6 62.3032 66.6 59.47Z" class="cls-1 MsftOfcThm_Background1_Fill_v2" fill="#07182D"/><path d="M94.77 24.41C94.77 21.5768 92.4732 19.28 89.64 19.28 86.8068 19.28 84.51 21.5768 84.51 24.41L84.51 49.26C84.51 52.0932 86.8068 54.39 89.64 54.39 92.4732 54.39 94.77 52.0932 94.77 49.26Z" class="cls-1 MsftOfcThm_Background1_Fill_v2" fill="#07182D"/><path d="M122.91 38.51C122.785 35.6851 120.394 33.4963 117.569 33.6212 114.919 33.7384 112.797 35.8601 112.68 38.51L112.68 49.26C112.555 52.0849 114.744 54.4763 117.569 54.6012 120.394 54.7262 122.785 52.5374 122.91 49.7124 122.917 49.5617 122.917 49.4107 122.91 49.26Z" class="cls-1 MsftOfcThm_Background1_Fill_v2" fill="#07182D"/><path d="M151.09 24.41C151.09 21.5878 148.802 19.3 145.98 19.3 143.158 19.3 140.87 21.5878 140.87 24.41L140.87 49.26C140.87 52.0822 143.158 54.37 145.98 54.37 148.802 54.37 151.09 52.0822 151.09 49.26Z" class="cls-1 MsftOfcThm_Background1_Fill_v2" fill="#07182D"/><path d="M179.28 5.11C179.28 2.28783 176.992 1.75293e-07 174.17 2.26829e-07 171.348 2.78365e-07 169.06 2.28783 169.06 5.11L169.06 59.47C169.06 62.2922 171.348 64.58 174.17 64.58 176.992 64.58 179.28 62.2922 179.28 59.47Z" class="cls-1 MsftOfcThm_Background1_Fill_v2" fill="#07182D"/><path d="M207.47 24.41C207.345 21.5685 204.94 19.3666 202.098 19.4919 199.432 19.6094 197.298 21.744 197.18 24.41L197.18 49.26C197.305 52.1015 199.71 54.3034 202.552 54.1781 205.218 54.0606 207.352 51.926 207.47 49.26Z" class="cls-1 MsftOfcThm_Background1_Fill_v2" fill="#07182D"/><path d="M235.59 38.51C235.465 35.6851 233.074 33.4963 230.249 33.6212 227.599 33.7384 225.477 35.8601 225.36 38.51L225.36 49.26C225.235 52.0849 227.424 54.4763 230.249 54.6012 233.074 54.7262 235.465 52.5374 235.59 49.7124 235.597 49.5617 235.597 49.4107 235.59 49.26Z" class="cls-1 MsftOfcThm_Background1_Fill_v2" fill="#07182D"/></g></g></g></svg>