<svg id="livetype" xmlns="http://www.w3.org/2000/svg" viewBox="0 0 134.2 40"><style>.st0{fill:#fff}</style><path class="st0" d="M124.67 0H8.44c-.31 0-.61.01-.92.01-.67.01-1.34.07-2 .18-.66.11-1.3.32-1.9.63-.6.3-1.15.7-1.62 1.18-.48.47-.88 1.02-1.18 1.62-.3.6-.51 1.24-.62 1.9-.11.66-.17 1.33-.18 2-.01.31-.02.62-.02.92v23.11c0 .31.01.61.02.92.01.67.07 1.34.18 2 .11.66.32 1.31.62 1.9.3.6.7 1.14 1.18 1.61.47.48 1.02.87 1.62 1.18.6.3 1.24.52 1.9.63.66.11 1.33.17 2 .18.31.02.61.03.92.03h117.31c.3 0 .62 0 .92-.01.67-.01 1.34-.07 2-.18.66-.11 1.31-.33 1.91-.63.6-.3 1.14-.7 1.62-1.18.48-.47.87-1.02 1.18-1.61.3-.6.51-1.24.62-1.9.11-.66.17-1.33.19-2v-.92c.01-.36.01-.72.01-1.09V9.54c0-.37 0-.73-.01-1.09v-.92c-.01-.67-.07-1.34-.19-2a6.72 6.72 0 0 0-.62-1.9c-.62-1.2-1.6-2.18-2.8-2.8-.6-.3-1.24-.51-1.91-.63-.66-.11-1.33-.17-2-.18-.3 0-.62-.01-.92-.01-.35-.01-.72-.01-1.08-.01z"/><path d="M8.44 39.12c-.3 0-.6 0-.9-.01-.63-.01-1.25-.06-1.87-.16a5.79 5.79 0 0 1-1.66-.55c-.52-.26-.99-.61-1.4-1.02-.41-.41-.76-.88-1.02-1.4a5.67 5.67 0 0 1-.54-1.66c-.1-.62-.16-1.25-.17-1.88-.01-.21-.01-.91-.01-.91V8.44s.01-.69.01-.89c.02-.63.07-1.25.17-1.87.1-.58.28-1.14.55-1.66.26-.52.6-.99 1.02-1.4.4-.41.88-.76 1.39-1.02.52-.26 1.08-.45 1.65-.54C6.28.96 6.91.9 7.54.9l.9-.01h117.3l.91.01c.62.01 1.24.06 1.86.16a5.6 5.6 0 0 1 4.09 2.97c.26.52.44 1.08.54 1.65.1.62.16 1.25.17 1.89v.89c.01.38.01.73.01 1.09v20.93c0 .36 0 .72-.01 1.08v.93c-.01.62-.07 1.24-.17 1.85a5.83 5.83 0 0 1-.54 1.67c-.26.51-.61.98-1.02 1.39-.41.41-.88.76-1.4 1.02-.53.27-1.09.45-1.67.55-.62.1-1.24.16-1.87.16-.29.01-.6.01-.9.01h-1.08L8.44 39.12z"/><g id="_Group_"><g id="_Group_2"><g id="_Group_3"><path id="_Path_" class="st0" d="M31.15 20.27c.02-1.77.95-3.41 2.47-4.34a5.303 5.303 0 0 0-4.18-2.26c-1.76-.18-3.46 1.05-4.36 1.05-.91 0-2.29-1.03-3.78-1a5.57 5.57 0 0 0-4.68 2.85c-2.02 3.5-.51 8.65 1.42 11.48.97 1.39 2.1 2.94 3.59 2.88 1.45-.06 1.99-.93 3.74-.93 1.74 0 2.24.93 3.76.89 1.56-.03 2.54-1.39 3.47-2.79.7-.99 1.23-2.08 1.59-3.24a4.985 4.985 0 0 1-3.04-4.59z"/><path id="_Path_2" class="st0" d="M28.29 11.81a5.102 5.102 0 0 0 1.17-3.65c-1.3.14-2.5.76-3.36 1.74-.85.97-1.28 2.23-1.2 3.52 1.32 0 2.57-.59 3.39-1.61z"/></g></g><path class="st0" d="M49.5 27.43h-4.95l-1.19 3.51h-2.1l4.69-12.99h2.18l4.69 12.99h-2.13l-1.19-3.51zm-4.44-1.63h3.93l-1.94-5.7H47l-1.94 5.7zM62.95 26.2c0 2.94-1.58 4.83-3.95 4.83-1.23.06-2.39-.58-2.98-1.66h-.04v4.69h-1.94v-12.6h1.88v1.58h.04a3.36 3.36 0 0 1 3.02-1.67c2.38 0 3.97 1.9 3.97 4.83zm-2 0c0-1.92-.99-3.18-2.5-3.18-1.49 0-2.48 1.29-2.48 3.18 0 1.91 1 3.19 2.48 3.19 1.51 0 2.5-1.25 2.5-3.19zM73.37 26.2c0 2.94-1.58 4.83-3.95 4.83-1.23.06-2.39-.58-2.98-1.66h-.04v4.69h-1.94v-12.6h1.88v1.58h.04a3.36 3.36 0 0 1 3.02-1.67c2.39 0 3.97 1.9 3.97 4.83zm-1.99 0c0-1.92-.99-3.18-2.5-3.18-1.49 0-2.48 1.29-2.48 3.18 0 1.91 1 3.19 2.48 3.19 1.5 0 2.5-1.25 2.5-3.19zM80.26 27.32c.14 1.29 1.4 2.13 3.11 2.13 1.64 0 2.82-.85 2.82-2.01 0-1.01-.71-1.61-2.39-2.03L82.12 25c-2.39-.58-3.49-1.69-3.49-3.5 0-2.24 1.95-3.78 4.73-3.78 2.75 0 4.63 1.54 4.69 3.78h-1.96c-.12-1.3-1.19-2.08-2.76-2.08s-2.64.79-2.64 1.94c0 .92.68 1.46 2.36 1.87l1.43.35c2.67.63 3.77 1.7 3.77 3.6 0 2.43-1.94 3.95-5.02 3.95-2.88 0-4.83-1.49-4.95-3.84l1.98.03zM92.44 19.22v2.24h1.8V23h-1.8v5.22c0 .81.36 1.19 1.15 1.19.21 0 .43-.02.64-.04v1.53c-.36.07-.72.1-1.08.09-1.92 0-2.67-.72-2.67-2.56V23H89.1v-1.54h1.38v-2.24h1.96zM95.28 26.2c0-2.98 1.76-4.85 4.49-4.85 2.75 0 4.49 1.87 4.49 4.85 0 2.99-1.74 4.85-4.49 4.85s-4.49-1.86-4.49-4.85zm7.01 0c0-2.04-.94-3.25-2.51-3.25-1.58 0-2.51 1.22-2.51 3.25 0 2.05.94 3.25 2.51 3.25 1.57 0 2.51-1.2 2.51-3.25zM105.87 21.46h1.85v1.61h.04a2.259 2.259 0 0 1 2.28-1.71c.22 0 .45.02.67.07v1.82c-.28-.09-.58-.13-.87-.12a1.971 1.971 0 0 0-2.03 2.18v5.62h-1.94v-9.47zM119.68 28.15c-.26 1.72-1.94 2.9-4.08 2.9-2.76 0-4.47-1.85-4.47-4.81 0-2.97 1.72-4.9 4.38-4.9 2.62 0 4.27 1.8 4.27 4.67v.67h-6.69v.12a2.474 2.474 0 0 0 2.55 2.69c.94.09 1.83-.45 2.19-1.33l1.85-.01zm-6.57-2.82h4.74c.07-1.26-.89-2.33-2.15-2.4h-.18a2.399 2.399 0 0 0-2.41 2.4z"/></g><g id="_Group_4"><path class="st0" d="M44.81 8.17a2.764 2.764 0 0 1 2.95 2.56c.01.18.01.36-.01.54 0 1.99-1.08 3.14-2.94 3.14h-2.25V8.17h2.25zm-1.28 5.36h1.18c1.08.06 2.01-.76 2.08-1.84.01-.13 0-.27-.02-.4.15-1.08-.61-2.07-1.68-2.22-.12-.02-.25-.02-.38-.02h-1.18v4.48zM48.85 12.05c-.12-1.23.78-2.32 2.01-2.43 1.23-.12 2.32.78 2.43 2.01.01.14.01.28 0 .43.12 1.23-.78 2.32-2.01 2.44-1.23.12-2.32-.78-2.44-2.01-.01-.15-.01-.3.01-.44zm3.48 0c0-1.02-.46-1.62-1.26-1.62-.81 0-1.26.6-1.26 1.62 0 1.03.45 1.62 1.26 1.62.8 0 1.26-.59 1.26-1.62zM59.2 14.41h-.96l-.97-3.47h-.07l-.97 3.47h-.96l-1.3-4.71h.94l.84 3.59h.07l.97-3.59h.89l.97 3.59h.07l.84-3.59h.93l-1.29 4.71zM61.58 9.7h.9v.75h.07c.24-.55.81-.89 1.41-.84a1.533 1.533 0 0 1 1.63 1.75v3.05h-.93v-2.82c0-.76-.33-1.13-1.02-1.13-.6-.03-1.1.43-1.13 1.03v2.92h-.93V9.7zM67.06 7.86h.93v6.55h-.93V7.86zM69.29 12.05c-.12-1.23.78-2.32 2.01-2.43a2.226 2.226 0 0 1 2.43 2.43c.12 1.23-.78 2.32-2.01 2.44s-2.32-.78-2.44-2.01c-.01-.14-.01-.29.01-.43zm3.48 0c0-1.02-.46-1.62-1.26-1.62-.81 0-1.26.6-1.26 1.62 0 1.03.45 1.62 1.26 1.62.8 0 1.26-.59 1.26-1.62zM74.71 13.08c0-.85.63-1.34 1.75-1.41l1.28-.07v-.41c0-.5-.33-.78-.96-.78-.52 0-.88.19-.98.52h-.9c.1-.81.86-1.33 1.92-1.33 1.18 0 1.85.59 1.85 1.58v3.22h-.9v-.66h-.07c-.3.48-.84.77-1.42.74-.78.08-1.48-.49-1.56-1.27-.01-.04-.01-.09-.01-.13zm3.03-.41v-.39l-1.15.07c-.65.04-.94.26-.94.68 0 .42.37.67.87.67.61.06 1.15-.38 1.22-.99v-.04zM79.88 12.05c0-1.49.77-2.43 1.96-2.43.6-.03 1.16.29 1.44.83h.07V7.86h.93v6.55h-.89v-.74h-.07c-.3.53-.87.84-1.48.82-1.2 0-1.96-.95-1.96-2.44zm.97 0c0 1 .47 1.6 1.26 1.6.78 0 1.27-.61 1.27-1.6 0-.98-.49-1.6-1.27-1.6-.79 0-1.26.61-1.26 1.6zM88.13 12.05c-.12-1.23.78-2.32 2.01-2.43 1.23-.12 2.32.78 2.43 2.01.01.14.01.28 0 .43.12 1.23-.78 2.32-2.01 2.44-1.23.12-2.32-.78-2.44-2.01 0-.15 0-.3.01-.44zm3.49 0c0-1.02-.46-1.62-1.26-1.62-.81 0-1.26.6-1.26 1.62 0 1.03.45 1.62 1.26 1.62.8 0 1.26-.59 1.26-1.62zM93.82 9.7h.9v.75h.07c.24-.55.81-.89 1.41-.84a1.533 1.533 0 0 1 1.63 1.75v3.05h-.93v-2.82c0-.76-.33-1.13-1.02-1.13-.6-.03-1.1.43-1.13 1.03v2.92h-.93V9.7zM103.08 8.52v1.19h1.02v.78h-1.02v2.42c0 .49.2.71.67.71.12 0 .24-.01.35-.02v.77c-.17.03-.34.05-.51.05-1.03 0-1.45-.36-1.45-1.27V10.5h-.75v-.78h.75v-1.2h.94zM105.37 7.86h.92v2.6h.07c.25-.56.83-.89 1.44-.84.86-.05 1.59.61 1.63 1.47.01.1 0 .19-.01.29v3.04h-.93V11.6c0-.75-.35-1.13-1.01-1.13a1.1 1.1 0 0 0-1.19 1.01c-.01.06 0 .13 0 .19v2.75h-.93l.01-6.56zM114.84 13.14c-.26.89-1.12 1.46-2.04 1.36a2.15 2.15 0 0 1-2.2-2.08c0-.12 0-.23.02-.35-.16-1.19.68-2.28 1.87-2.44.1-.01.2-.02.31-.02 1.31 0 2.1.9 2.1 2.37v.32h-3.33v.05c-.06.69.45 1.29 1.14 1.35h.12c.45.05.9-.17 1.12-.57l.89.01zm-3.27-1.52h2.38c.05-.63-.42-1.17-1.05-1.22h-.11a1.2 1.2 0 0 0-1.22 1.19v.03z"/></g></svg>